Coordinates
version=1
nRows=39
nColumns=6
inDegrees=yes

Units are S.I. units (second, meters, Newtons, ...)
If the header above contains a line with 'inDegrees', this indicates whether rotational values are in degrees (yes) or radians (no).

endheader
time	foot_tx	hip_flexion_r	knee_angle_r	ankle_angle_r	lumbar
      1.70000000	      0.25896435	     63.21818751	    -61.49935713	     -2.48164598	    -12.57566916
      1.71000000	      0.25895853	     63.35301584	    -61.49251663	     -2.47299813	    -12.68614641
      1.72000000	      0.25899152	     63.57212605	    -61.47754169	     -2.47424774	    -12.70976301
      1.73000000	      0.25901412	     63.79010715	    -61.47023246	     -2.46723481	    -12.74724805
      1.74000000	      0.25905238	     64.03522658	    -61.46122731	     -2.46077492	    -12.76512680
      1.75000000	      0.25906620	     64.30537337	    -61.46396674	     -2.44355420	    -12.76395332
      1.76000000	      0.25910446	     64.58089754	    -61.46103566	     -2.42703724	    -12.76561244
      1.77000000	      0.25912883	     64.85173887	    -61.46176340	     -2.40229579	    -12.78137797
      1.78000000	      0.25915195	     65.10554079	    -61.46300659	     -2.37095515	    -12.82477679
      1.79000000	      0.25917478	     65.34589124	    -61.46403008	     -2.33520306	    -12.89536902
      1.80000000	      0.25918904	     65.58584717	    -61.46609767	     -2.29706159	    -12.98585764
      1.81000000	      0.25919850	     65.84101235	    -61.46897140	     -2.26013095	    -13.08396607
      1.82000000	      0.25920262	     66.12110199	    -61.47223333	     -2.22672030	    -13.18257626
      1.83000000	      0.25920081	     66.42859951	    -61.47557273	     -2.19755896	    -13.28018761
      1.84000000	      0.25919227	     66.76016076	    -61.47887300	     -2.17202972	    -13.38039625
      1.85000000	      0.25918209	     67.11537014	    -61.48115260	     -2.15005309	    -13.48165756
      1.86000000	      0.25916938	     67.49058321	    -61.48333473	     -2.12952842	    -13.58624079
      1.87000000	      0.25915346	     67.88184131	    -61.48507430	     -2.10924237	    -13.69721401
      1.88000000	      0.25913754	     68.28972316	    -61.48570507	     -2.08908048	    -13.81252006
      1.89000000	      0.25912393	     68.71138767	    -61.48298739	     -2.06993215	    -13.93639924
      1.90000000	      0.25909980	     69.14461574	    -61.47900712	     -2.04949238	    -14.07420357
      1.91000000	      0.25907046	     69.58969907	    -61.47213223	     -2.02935742	    -14.22886518
      1.92000000	      0.25901560	     70.05056465	    -61.46901631	     -2.00467923	    -14.39925656
      1.93000000	      0.25897163	     70.52115028	    -61.45661959	     -1.98543439	    -14.59675946
      1.94000000	      0.25890042	     71.01025677	    -61.44889480	     -1.96150115	    -14.81339756
      1.95000000	      0.25883048	     71.52064046	    -61.43422559	     -1.94164397	    -15.05018090
      1.96000000	      0.25872958	     72.05376315	    -61.42842953	     -1.91452681	    -15.30559654
      1.97000000	      0.25863989	     72.61368882	    -61.41436164	     -1.89251886	    -15.57884845
      1.98000000	      0.25853239	     73.20092454	    -61.40822450	     -1.86342940	    -15.86749536
      1.99000000	      0.25842964	     73.82496969	    -61.39792231	     -1.83506992	    -16.16268128
      2.00000000	      0.25833498	     74.48304599	    -61.38795707	     -1.80362423	    -16.46319757
      2.01000000	      0.25823117	     75.18500344	    -61.38067008	     -1.76563289	    -16.75519212
      2.02000000	      0.25813507	     75.93790301	    -61.36989307	     -1.72466143	    -17.02407366
      2.03000000	      0.25804117	     76.75363670	    -61.35588283	     -1.67939223	    -17.24812236
      2.04000000	      0.25793605	     77.63687363	    -61.33942335	     -1.62689150	    -17.41559389
      2.05000000	      0.25784229	     78.59280762	    -61.31539365	     -1.57075200	    -17.51164572
      2.06000000	      0.25774061	     79.62371610	    -61.28847383	     -1.50524114	    -17.52736399
      2.07000000	      0.25763237	     80.73153868	    -61.26185848	     -1.42685481	    -17.45293579
      2.08000000	      0.25751892	     81.90433688	    -61.23757431	     -1.33196211	    -17.29673678
